<svg xmlns="http://www.w3.org/2000/svg" width="28.614" height="28.987" viewBox="0 0 28.614 28.987">
  <path id="path72" d="M1616.642-3117.479c0-4.631,3.622-8.638,5.149-10.12,1.527,1.484,5.148,5.49,5.148,10.12a13.154,13.154,0,0,1-2.875,7.534h-4.548A13.157,13.157,0,0,1,1616.642-3117.479Zm-2.977,7.687v-3.216a3.068,3.068,0,0,1,.735-1.822l.673-.68a13.25,13.25,0,0,0,1.084,3.2Zm14.843-5.719.673.68a3.068,3.068,0,0,1,.735,1.822v3.216l-2.492-2.517A13.223,13.223,0,0,0,1628.508-3115.51Zm-4.384,6.833h.464a.978.978,0,0,0,.77-.325,19.927,19.927,0,0,0,1.3-1.894l2.522,2.545a1.7,1.7,0,0,0,1.227.554,1.578,1.578,0,0,0,.347-.039,1.148,1.148,0,0,0,.923-1.259v-3.914a4.121,4.121,0,0,0-1.062-2.558l-1.915-1.934a14.251,14.251,0,0,0-3.119-8.161,21.307,21.307,0,0,0-3.126-3.38,1.052,1.052,0,0,0-.665-.218,1.053,1.053,0,0,0-.665.218,21.3,21.3,0,0,0-3.126,3.38,14.249,14.249,0,0,0-3.119,8.161l-1.916,1.934a4.123,4.123,0,0,0-1.062,2.558v3.914a1.148,1.148,0,0,0,.924,1.259,1.573,1.573,0,0,0,.347.039,1.7,1.7,0,0,0,1.227-.554l2.522-2.545a20,20,0,0,0,1.3,1.894.98.98,0,0,0,.77.325h.463" transform="matrix(0.809, 0.588, -0.588, 0.809, -3130.773, 1584.171)" fill="#fff"/>
</svg>
